<svg id="レイヤー_1" data-name="レイヤー 1" xmlns="http://www.w3.org/2000/svg" viewBox="0 0 426.57 130"><defs><style>.cls-1{fill:#3d4040;}</style></defs><title>qiita</title><circle class="cls-1" cx="167.08" cy="21.4" r="12.28"/><path class="cls-1" d="M284.56,3.29H264.39V29.66H250.81v18.9h13.58V86.63q0,11.16,2.83,18.27a27.71,27.71,0,0,0,7.7,11.2,26.86,26.86,0,0,0,11.43,5.62,47.56,47.56,0,0,0,12.34,1.53h15.16v-18H300.76a22.23,22.23,0,0,1-6.26-.86,12.68,12.68,0,0,1-5.17-3,14.41,14.41,0,0,1-3.56-5.76,27.7,27.7,0,0,1-1.3-9.22V48.56h29.61V29.66H284.56Z"/><path class="cls-1" d="M128,61.7a58.6,58.6,0,0,0-5-24.21A62,62,0,0,0,109.23,17.9,64.24,64.24,0,0,0,88.85,4.78,65,65,0,0,0,64,0,64.93,64.93,0,0,0,39,4.78,63.72,63.72,0,0,0,18.73,17.9,62.26,62.26,0,0,0,5,37.49,58.6,58.6,0,0,0,0,61.7,58.3,58.3,0,0,0,5,85.81a62.82,62.82,0,0,0,13.69,19.64,64.63,64.63,0,0,0,45.23,18,66.32,66.32,0,0,0,17.59-2.3,65,65,0,0,0,15.78-6.65L109.64,127a10.3,10.3,0,1,0,14.6-14.53l-11.1-11.1a62.8,62.8,0,0,0,10.91-18.16A58.34,58.34,0,0,0,128,61.7ZM103.06,78.77A41.88,41.88,0,0,1,80.55,101.5,41.78,41.78,0,0,1,64,104.8a41.31,41.31,0,0,1-16.47-3.3,42.23,42.23,0,0,1-13.43-9.09A43.13,43.13,0,0,1,21.64,61.78,43.37,43.37,0,0,1,34.06,31.06,42.37,42.37,0,0,1,47.49,22,41.31,41.31,0,0,1,64,18.68,42.06,42.06,0,0,1,94,31.06a42.37,42.37,0,0,1,9,13.69,43.77,43.77,0,0,1,3.3,17A43.43,43.43,0,0,1,103.06,78.77Z"/><path class="cls-1" d="M409.22,35l-1.17,9.43a44.39,44.39,0,0,0-5.71-4.63,40,40,0,0,0-7-3.84,46.5,46.5,0,0,0-8.18-2.58,42.72,42.72,0,0,0-9.26-1A47.82,47.82,0,0,0,359,36a44.25,44.25,0,0,0-14.51,9.76,43.22,43.22,0,0,0-9.34,14.47A47.59,47.59,0,0,0,331.89,78a47,47,0,0,0,3.34,17.73,44.17,44.17,0,0,0,9.34,14.47A43.3,43.3,0,0,0,359,119.9a47.94,47.94,0,0,0,18.73,3.55,43,43,0,0,0,9.22-1,44.86,44.86,0,0,0,8.17-2.59,43.11,43.11,0,0,0,7-3.79,42.54,42.54,0,0,0,5.84-4.67l1.17,9.42h17.35V35Zm-4.17,54.26a27.57,27.57,0,0,1-5.88,8.84,26.21,26.21,0,0,1-8.72,5.76,29.19,29.19,0,0,1-21.44,0,26.69,26.69,0,0,1-8.76-5.76,27,27,0,0,1-5.92-8.88,30.8,30.8,0,0,1,0-22.61,27.08,27.08,0,0,1,5.84-8.8,26.19,26.19,0,0,1,8.71-5.75A28.29,28.29,0,0,1,379.61,50a27.68,27.68,0,0,1,19.51,7.85,26.57,26.57,0,0,1,5.93,8.8,28.62,28.62,0,0,1,2.16,11.22A29,29,0,0,1,405.05,89.29Z"/><rect class="cls-1" x="157.19" y="47.42" width="19.78" height="73.54"/><rect class="cls-1" x="206.44" y="47.42" width="19.78" height="73.54"/><circle class="cls-1" cx="216.33" cy="21.4" r="12.28" transform="translate(0.87 50.28) rotate(-13.28)"/></svg>